<svg xmlns="http://www.w3.org/2000/svg" width="200" height="200" fill="none" viewBox="0 0 61 62" version="1.1" xmlns:xlink="http://www.w3.org/1999/xlink" xmlns:svgjs="http://svgjs.dev/svgjs"><path fill="rgba(217, 0, 0, 1)" d="M41.9 30.5c.8-.2 18.5-3.6 18.5-3.6s-13.1.7-18.1.2c.6-.3 18.1-7.6 18.1-7.6L50.7 22c-7.7 2.1-8.8 2.2-8.8 2.2L58.4 9.5 39 22.2l13.8-18-16.2 16.6 6.1-17.5-8.5 15.9L35 .9s-2.2 10.4-3.8 19.9c0-1.9-4.8-19.9-4.8-19.9s1.6 12.9 2.3 20.2c-.2-.3-8.4-16.6-8.4-16.6s5.8 16.8 6 17.5c-1-1.1-11.6-14.4-11.6-14.4s8.8 15.8 9 16.5C23.5 24 9.6 11.9 9.6 11.9s12.8 14.5 12.6 14.4L4.3 16.4l16.1 11.5L.3 25.5s10.1 2.7 20.3 4.6L.3 33.3s17.4-.2 19.9.4c-1.3 1.4-18.1 9.2-18.1 9.2l18.6-6.6L2.2 54.2 23.7 39 9 59.8l17.9-18.7c-.2 5.7-2 20.9-2 20.9l5.5-20.4 2.9 18.3s-.5-17.8-.1-18.6c3.9 7.5 9.8 18.6 9.8 18.6l-6.9-20 12.6 13.9S38.9 39 38.6 38.3l15.5 10.3-8-8.2c-1.4-1.2-4.1-3.2-4.6-3.9L60 45 42.1 34l17.5.4-17.7-3.9Z"></path></svg>